<?xml version="1.0" encoding="UTF-8"?>
<svg id="Layer_1" data-name="Layer 1" xmlns="http://www.w3.org/2000/svg" viewBox="0 0 451.19 96.51">
  <defs>
    <style>
      .cls-1 {
        fill: #191993;
      }
    </style>
  </defs>
  <g>
    <rect class="cls-1" x="35.49" y="8.52" width="7.18" height="30.68"/>
    <rect class="cls-1" x="53.24" y="0" width="7.18" height="39.2"/>
    <rect class="cls-1" x="70.97" y="8.52" width="7.18" height="30.68"/>
    <rect class="cls-1" x="88.73" y="27.86" width="7.18" height="11.34"/>
    <rect class="cls-1" x="106.46" y="36.44" width="7.18" height="2.74"/>
    <rect class="cls-1" y="36.44" width="7.18" height="2.74"/>
    <rect class="cls-1" x="17.73" y="27.86" width="7.18" height="11.34"/>
    <rect class="cls-1" x="35.49" y="57.3" width="7.18" height="30.68"/>
    <rect class="cls-1" x="53.24" y="57.3" width="7.18" height="39.2"/>
    <rect class="cls-1" x="70.97" y="57.3" width="7.18" height="30.68"/>
    <rect class="cls-1" x="88.73" y="57.3" width="7.18" height="11.34"/>
    <rect class="cls-1" x="106.46" y="57.3" width="7.18" height="2.74"/>
    <rect class="cls-1" y="57.3" width="7.18" height="2.74"/>
    <rect class="cls-1" x="17.73" y="57.3" width="7.18" height="11.34"/>
  </g>
  <g>
    <path class="cls-1" d="M153.96,13.54h26.76c19.64,0,30.87,13.7,30.87,34.34s-11.05,33.61-31.6,33.61h-26.03V13.54ZM179.17,70.72c13.43,0,19.46-8.59,19.46-22.83s-5.75-23.57-19.09-23.57h-12.88v46.4h12.51Z"/>
    <path class="cls-1" d="M217.99,57.2c0-14.52,9.77-25.76,24.21-25.76,7.12,0,12.7,2.47,16.81,6.85,4.75,5.02,7.03,12.7,6.94,21.74h-36.44c.82,8.4,5.3,14.07,13.43,14.07,5.57,0,9.22-2.38,10.78-6.39h11.33c-2.38,8.77-10.23,15.25-22.2,15.25-15.53,0-24.84-11.33-24.84-25.76ZM229.68,52.73h24.3c-.46-8.04-4.75-12.88-11.78-12.88-7.58,0-11.51,5.21-12.51,12.88Z"/>
    <path class="cls-1" d="M274.08,32.73h11.23v7.4h.27c3.11-5.48,7.95-8.68,14.61-8.68,6.12,0,10.78,3.11,12.97,9.13h.18c3.84-6.3,9.32-9.13,15.34-9.13,9.96,0,15.8,6.49,15.8,16.99v33.06h-11.6v-31.51c0-5.57-3.2-8.95-7.95-8.95-5.66,0-9.87,4.75-9.87,11.6v28.86h-11.6v-31.51c0-5.57-2.83-8.95-7.67-8.95-5.39,0-10.14,4.75-10.14,11.6v28.86h-11.6v-48.78Z"/>
    <path class="cls-1" d="M352.26,57.2c0-14.52,9.77-25.76,24.21-25.76,7.12,0,12.7,2.47,16.81,6.85,4.75,5.02,7.03,12.7,6.94,21.74h-36.44c.82,8.4,5.3,14.07,13.43,14.07,5.57,0,9.22-2.38,10.78-6.39h11.33c-2.38,8.77-10.23,15.25-22.2,15.25-15.53,0-24.84-11.33-24.84-25.76ZM363.96,52.73h24.3c-.46-8.04-4.75-12.88-11.78-12.88-7.58,0-11.51,5.21-12.51,12.88Z"/>
    <path class="cls-1" d="M419.67,55.93l-15.8-23.2h13.33l4.84,7.67c2.01,3.29,4.57,8.68,4.57,8.68h.18s2.65-5.48,4.57-8.68l4.93-7.67h12.42l-15.44,22.65,17.9,26.12h-13.43l-6.39-9.77c-2.1-3.47-4.93-9.22-4.93-9.22h-.18s-2.92,5.75-5.02,9.22l-6.49,9.77h-12.79l17.72-25.58Z"/>
  </g>
</svg>